<?xml version="1.0" encoding="UTF-8"?>
<svg width="963px" height="480px" viewBox="0 0 963 480" version="1.1" xmlns="http://www.w3.org/2000/svg" xmlns:xlink="http://www.w3.org/1999/xlink">
    <!-- Generator: Sketch 52 (66869) - http://www.bohemiancoding.com/sketch -->
    <title>Group</title>
    <desc>Created with Sketch.</desc>
    <defs>
        <radialGradient cx="0.25781251%" cy="49.7500002%" fx="0.25781251%" fy="49.7500002%" r="101%" gradientTransform="translate(0.002578,0.497500),scale(1.000000,0.833333),scale(1.000000,0.865712),translate(-0.002578,-0.497500)" id="radialGradient-1">
            <stop stop-color="#3023AE" offset="0%"></stop>
            <stop stop-color="#53A0FD" offset="100%"></stop>
        </radialGradient>
    </defs>
    <g id="logo" stroke="none" stroke-width="1" fill="none" fill-rule="evenodd">
        <g transform="translate(-40.000000, -20.000000)" id="Group">
            <g transform="translate(40.000000, 20.000000)">
                <path d="M0,200 C0,0 183.916355,3.55271368e-15 200,0 C216.083645,0 400,0 400,200 C400,360.602127 263.263237,400 200,400 C169.940075,400 130.053436,383.872837 110.053436,360 C83.687159,328.528108 81.6540229,287.441333 100,280 C120,271.887777 144.702055,320 200,320 C255.297945,320 320,270.651856 320,200 C320,129.348144 280,80 200,80 C120,80 79.9607444,129.348144 79.9607444,200 L79.9607444,440 C79.9607444,460.484491 52.5173973,480 40,480 C27.4826027,480 7.10542736e-15,458.833096 0,440 L0,200 Z M200,260 C166.862915,260 140,233.137085 140,200 C140,166.862915 166.862915,140 200,140 C233.137085,140 260,166.862915 260,200 C260,233.137085 233.137085,260 200,260 Z" id="icon" fill="url(#radialGradient-1)"></path>
                <text id="poac" font-family="ArialRoundedMTBold, Arial Rounded MT Bold" font-size="251" font-weight="normal" letter-spacing="-12.5499992" fill="#000000">
                    <tspan x="406" y="376">poac</tspan>
                </text>
            </g>
        </g>
    </g>
</svg>